<svg width="512" height="512" viewBox="0 0 512 512" fill="none" xmlns="http://www.w3.org/2000/svg">
    <path d="M506 103.396C487.244 111.546 467.4 116.915 447.094 119.334C468.434 106.837 484.482 86.9852 492.229 63.5002C472.053 75.298 450.016 83.5759 427.062 87.9793C417.397 77.8494 405.772 69.7908 392.895 64.2934C380.018 58.7959 366.158 55.9743 352.156 56.0002C295.469 56.0002 249.594 101.209 249.594 156.938C249.554 164.689 250.442 172.418 252.24 179.959C211.59 178.053 171.787 167.683 135.375 149.513C98.9629 131.343 66.7446 105.773 40.7812 74.4377C31.6727 89.7931 26.8555 107.313 26.8333 125.167C26.8333 160.167 45.0937 191.104 72.6667 209.229C56.3305 208.842 40.3291 204.518 26.0208 196.625V197.875C26.0208 246.834 61.4375 287.563 108.312 296.834C99.4977 299.183 90.4142 300.374 81.2917 300.375C74.8185 300.386 68.3601 299.758 62.0104 298.5C75.0417 338.604 112.969 367.771 157.896 368.604C121.389 396.739 76.5689 411.945 30.4792 411.834C22.2981 411.821 14.1246 411.334 6 410.375C52.8873 440.315 107.39 456.152 163.021 456C351.937 456 455.146 302.146 455.146 168.709C455.146 164.334 455.031 159.959 454.823 155.688C474.855 141.438 492.185 123.731 506 103.396Z" fill="white"/>
</svg>
